<?xml version="1.0" encoding="utf-8"?>
<!-- Generator: Adobe Illustrator 23.0.0, SVG Export Plug-In . SVG Version: 6.00 Build 0)  -->
<svg version="1.1" id="Layer_1" xmlns="http://www.w3.org/2000/svg" xmlns:xlink="http://www.w3.org/1999/xlink" x="0px" y="0px"
	 viewBox="0 0 612 792" style="enable-background:new 0 0 612 792;" xml:space="preserve">
<style type="text/css">
	.st0{fill:#FFFFFF;}
	.st1{fill:#C3377A;}
</style>
<g>
	<g>
		<circle class="st0" cx="306" cy="356.6" r="45.48"/>
		<path class="st1" d="M306,406c-27.24,0-49.4-22.16-49.4-49.4s22.16-49.4,49.4-49.4s49.4,22.16,49.4,49.4S333.24,406,306,406z
			 M306,315.02c-22.92,0-41.58,18.65-41.58,41.58s18.65,41.58,41.58,41.58s41.58-18.65,41.58-41.58S328.92,315.02,306,315.02z"/>
	</g>
</g>
<path class="st1" d="M304.07,382.5c-6.54,0-11.98-2.29-16.18-6.84c-4.34-4.52-6.54-10.78-6.54-18.59c0-7.87,2.23-14.29,6.59-19.09
	c4.41-4.82,10.28-7.27,17.48-7.27c6.22,0,11.33,1.63,15.14,4.82c3.01,2.5,5.02,5.55,6.03,9.04c0.3,1.01,0.09,2.09-0.55,2.96
	c-0.67,0.87-1.7,1.4-2.78,1.4h-5.16c-1.42,0-2.71-0.87-3.19-2.13c-0.8-2.2-2.25-3.74-4.43-4.68c-1.47-0.64-3.12-0.96-4.93-0.96
	c-3.46,0-6.24,1.26-8.47,3.88c-2.25,2.64-3.37,6.72-3.37,12.14c0,5.41,1.22,9.27,3.58,11.43c2.43,2.23,5.14,3.3,8.24,3.3
	c3.03,0,5.44-0.83,7.34-2.55c1.61-1.45,2.68-3.24,3.26-5.44h-7.18c-1.9,0-3.44-1.54-3.44-3.44v-3.26c0-1.9,1.54-3.44,3.44-3.44
	h15.01c1.9,0,3.44,1.54,3.44,3.44v20.67c0,1.9-1.54,3.44-3.44,3.44h-2.27c-1.67,0-3.12-1.22-3.4-2.87l-0.28-1.63
	c-1.35,1.4-2.59,2.46-3.79,3.17C311.48,381.63,308.07,382.5,304.07,382.5z"/>
</svg>
